<svg width="429" height="84.356" viewBox="0 20 350 68.822" class="looka-1j8o68f"><path d="M14.632 40.04c6.3 0 15.112 4.752 13.35 17.301H8.597c.962 2.884 3.471 4.379 6.836 4.379 3.417 0 4.485-.748 6.408-1.549l4.646 4.486c-2.457 2.403-5.768 4.165-11.375 4.165C8.224 68.822 0 64.07 0 54.511c0-9.719 8.33-14.472 14.632-14.472m0 7.21c-2.403 0-4.86 1.388-5.928 4.165h11.802c-.855-2.777-3.471-4.165-5.874-4.165m35.19-7.156c5.18 0 10.467 3.47 10.467 12.282v15.913h-8.437V52.962c0-4.218-1.442-5.553-4.112-5.553-3.792 0-5.981 3.684-6.515 5.286v15.593h-8.437V40.52h8.437v4.806c.534-1.335 3.364-5.233 8.597-5.233m33.429 0c.748 0 1.495 0 2.19.16v8.064c-.641-.16-1.39-.16-1.923-.16-5.126 0-9.238 3.684-9.666 8.81v11.321h-8.437V40.52h8.437v6.782c1.282-4.165 4.486-7.21 9.399-7.21m14.952-9.558v7.102h-8.437v-7.102zm0 9.986v27.768h-8.437V40.52zm19.117-.48c5.073 0 9.345 2.136 11.962 6.621l-6.408 3.044c-1.389-1.175-2.51-2.243-5.447-2.243-3.204 0-6.461 2.457-6.461 6.996 0 4.485 3.257 6.835 6.461 6.835 2.937 0 4.058-.961 5.447-2.136l6.515 3.044c-2.724 4.485-6.889 6.514-12.069 6.514-6.194 0-14.525-4.432-14.525-14.257 0-9.666 8.33-14.419 14.525-14.419m30.171 0c6.302 0 14.632 4.753 14.632 14.472 0 9.772-8.33 14.311-14.632 14.311s-14.631-4.539-14.631-14.311c0-9.719 8.33-14.472 14.631-14.472m0 7.423c-3.204 0-6.461 2.457-6.461 7.049 0 4.432 3.257 6.889 6.461 6.889s6.515-2.457 6.515-6.89c0-4.591-3.31-7.048-6.515-7.048m48.22-10.52c-2.402 0-2.349 2.19-2.349 2.724v.854h5.767v6.942h-5.767v20.826h-8.49V47.462h-3.792V40.52h3.791v-.854c0-8.598 6.462-9.666 9.826-9.666 2.67 0 5.287.588 7.263 1.87l-2.83 5.82c-1.55-.588-2.137-.748-3.418-.748m30.331 3.578h8.437v27.768h-8.437v-2.777c-.374.962-2.884 3.311-7.156 3.311-6.354 0-13.67-4.539-13.67-14.471 0-9.559 7.316-14.312 13.67-14.312 4.272 0 6.782 2.457 7.156 3.044zm-5.927 20.88c3.47 0 6.3-2.403 6.3-7.05 0-4.485-2.83-6.888-6.3-6.888-3.632 0-6.729 2.457-6.729 6.889 0 4.592 3.097 7.049 6.729 7.049m50.73-20.987-12.442 27.875h-7.423l-12.442-27.875h8.384l7.796 17.836 7.743-17.836zm24.03.107h8.437v27.768h-8.437v-2.777c-.374.962-2.884 3.311-7.156 3.311-6.354 0-13.67-4.539-13.67-14.471 0-9.559 7.316-14.312 13.67-14.312 4.272 0 6.782 2.457 7.156 3.044zm-5.928 20.88c3.472 0 6.302-2.403 6.302-7.05 0-4.485-2.83-6.888-6.302-6.888-3.63 0-6.728 2.457-6.728 6.889 0 4.592 3.097 7.049 6.728 7.049m28.25-30.866v37.754h-8.438V30.534zm19.223 9.505c6.301 0 15.113 4.753 13.35 17.302h-19.384c.961 2.884 3.471 4.379 6.835 4.379 3.418 0 4.486-.748 6.408-1.549l4.646 4.486c-2.456 2.403-5.767 4.165-11.374 4.165-6.889 0-15.112-4.752-15.112-14.311 0-9.719 8.33-14.472 14.631-14.472m0 7.21c-2.403 0-4.86 1.388-5.927 4.165h11.801c-.854-2.777-3.47-4.165-5.874-4.165" fill="#fff"/></svg>