<svg width="130" height="100" viewBox="0 40 160 100" class="looka-1j8o68f">
  <path xmlns="http://www.w3.org/2000/svg" d="m53.654 58.276-31.7 31.607 31.326 31.435a3.319 3.319 0 1 1-4.702 4.686L14.918 92.21a3.317 3.317 0 0 1 .007-4.694l34.06-33.942a3.317 3.317 0 0 1 4.669 4.702m93.941 29.204-33.66-33.794a3.319 3.319 0 0 0-4.702 4.686l31.326 31.434-31.717 31.608a3.319 3.319 0 1 0 4.686 4.702l34.06-33.942a3.317 3.317 0 0 0 .007-4.694m-46.012-46.122a3.317 3.317 0 0 0-4.348 1.734l-38.052 88.735a3.321 3.321 0 1 0 6.099 2.631l38.052-88.735a3.317 3.317 0 0 0-1.75-4.365" fill="#fff"/>
</svg>